<svg width="16" height="17" viewBox="0 0 16 17" fill="none" xmlns="http://www.w3.org/2000/svg">
<g id="BugBeetle">
<path id="Vector" d="M13 9.72489H14C14.1326 9.72489 14.2598 9.67221 14.3536 9.57844C14.4473 9.48467 14.5 9.3575 14.5 9.22489C14.5 9.09228 14.4473 8.9651 14.3536 8.87133C14.2598 8.77757 14.1326 8.72489 14 8.72489H13V7.72489H14C14.1326 7.72489 14.2598 7.67221 14.3536 7.57844C14.4473 7.48467 14.5 7.3575 14.5 7.22489C14.5 7.09228 14.4473 6.9651 14.3536 6.87133C14.2598 6.77757 14.1326 6.72489 14 6.72489H12.975C12.8646 5.62748 12.3933 4.59769 11.635 3.79676L12.8538 2.57864C12.9002 2.53218 12.9371 2.47703 12.9622 2.41634C12.9873 2.35564 13.0003 2.29058 13.0003 2.22489C13.0003 2.15919 12.9873 2.09414 12.9622 2.03344C12.9371 1.97274 12.9002 1.91759 12.8538 1.87114C12.8073 1.82468 12.7521 1.78783 12.6914 1.76269C12.6308 1.73755 12.5657 1.72461 12.5 1.72461C12.4343 1.72461 12.3692 1.73755 12.3086 1.76269C12.2479 1.78783 12.1927 1.82468 12.1462 1.87114L10.8781 3.13989C10.0365 2.54452 9.03093 2.22482 8 2.22482C6.96907 2.22482 5.96351 2.54452 5.12187 3.13989L3.85375 1.87114C3.75993 1.77732 3.63268 1.72461 3.5 1.72461C3.36732 1.72461 3.24007 1.77732 3.14625 1.87114C3.05243 1.96496 2.99972 2.09221 2.99972 2.22489C2.99972 2.35757 3.05243 2.48482 3.14625 2.57864L4.365 3.79676C3.6067 4.59769 3.13544 5.62748 3.025 6.72489H2C1.86739 6.72489 1.74021 6.77757 1.64645 6.87133C1.55268 6.9651 1.5 7.09228 1.5 7.22489C1.5 7.3575 1.55268 7.48467 1.64645 7.57844C1.74021 7.67221 1.86739 7.72489 2 7.72489H3V8.72489H2C1.86739 8.72489 1.74021 8.77757 1.64645 8.87133C1.55268 8.9651 1.5 9.09228 1.5 9.22489C1.5 9.3575 1.55268 9.48467 1.64645 9.57844C1.74021 9.67221 1.86739 9.72489 2 9.72489H3V10.2249C3 10.3936 3.00875 10.5605 3.025 10.7249H2C1.86739 10.7249 1.74021 10.7776 1.64645 10.8713C1.55268 10.9651 1.5 11.0923 1.5 11.2249C1.5 11.3575 1.55268 11.4847 1.64645 11.5784C1.74021 11.6722 1.86739 11.7249 2 11.7249H3.23C3.54904 12.7401 4.18366 13.627 5.04155 14.2567C5.89944 14.8863 6.93584 15.2259 8 15.2259C9.06416 15.2259 10.1006 14.8863 10.9584 14.2567C11.8163 13.627 12.451 12.7401 12.77 11.7249H14C14.1326 11.7249 14.2598 11.6722 14.3536 11.5784C14.4473 11.4847 14.5 11.3575 14.5 11.2249C14.5 11.0923 14.4473 10.9651 14.3536 10.8713C14.2598 10.7776 14.1326 10.7249 14 10.7249H12.975C12.9913 10.5605 13 10.3936 13 10.2249V9.72489ZM8 3.22489C8.97381 3.2261 9.91381 3.58213 10.6441 4.22635C11.3744 4.87057 11.8448 5.75883 11.9675 6.72489H4.03C4.15271 5.7584 4.62356 4.8698 5.35435 4.22553C6.08515 3.58125 7.02576 3.22549 8 3.22489ZM8.5 14.1924V9.22489C8.5 9.09228 8.44732 8.9651 8.35355 8.87133C8.25979 8.77757 8.13261 8.72489 8 8.72489C7.86739 8.72489 7.74021 8.77757 7.64645 8.87133C7.55268 8.9651 7.5 9.09228 7.5 9.22489V14.1924C6.53394 14.0697 5.64568 13.5992 5.00146 12.869C4.35724 12.1387 4.00121 11.1987 4 10.2249V7.72489H12V10.2249C11.9988 11.1987 11.6428 12.1387 10.9985 12.869C10.3543 13.5992 9.46606 14.0697 8.5 14.1924Z" fill="#212121"/>
</g>
</svg>
