<svg width="39" height="38" viewBox="0 0 39 38" fill="none" xmlns="http://www.w3.org/2000/svg">
<path d="M21.0835 3.1665H21.5153C26.6789 3.1665 29.2607 3.1665 31.0536 4.42974C31.5673 4.79168 32.0234 5.22092 32.408 5.70441C33.7502 7.3919 33.7502 9.82182 33.7502 14.6817V18.712C33.7502 23.4036 33.7502 25.7495 33.0077 27.6231C31.814 30.6351 29.2897 33.0109 26.0894 34.1344C24.0988 34.8332 21.6063 34.8332 16.6214 34.8332C13.7729 34.8332 12.3486 34.8332 11.2111 34.4339C9.38233 33.7919 7.93985 32.4343 7.25777 30.7131C6.8335 29.6425 6.8335 28.302 6.8335 25.621V18.9998" stroke="#0A74DA" stroke-width="2" stroke-linecap="round" stroke-linejoin="round"/>
<path d="M33.7498 19C33.7498 21.9148 31.3869 24.2778 28.4721 24.2778C27.4179 24.2778 26.1751 24.0931 25.1502 24.3677C24.2395 24.6117 23.5282 25.323 23.2842 26.2337C23.0096 27.2586 23.1943 28.5014 23.1943 29.5556C23.1943 32.4704 20.8313 34.8333 17.9165 34.8333" stroke="#0A74DA" stroke-width="2" stroke-linecap="round" stroke-linejoin="round"/>
<path d="M17.9167 9.49984L5.25 9.49984M11.5833 3.1665V15.8332" stroke="#0A74DA" stroke-width="2" stroke-linecap="round"/>
</svg>
