<svg width="52" height="52" viewBox="0 0 52 52" fill="none" xmlns="http://www.w3.org/2000/svg">
<g id="fluent-mdl2:mobile-angled">
<path id="Vector" d="M52 52.0002H48.7246L45.5 27.2698C45.4492 26.8297 45.3646 26.3896 45.2461 25.9495C45.1276 25.5094 44.8991 25.12 44.5605 24.7815L33.2109 13.5081L34.0488 23.6135L36.2832 25.8479C37.0111 26.5758 37.7559 27.329 38.5176 28.1077L36.2324 30.3928L26.8379 21.0237C26.3639 20.5497 25.7969 20.3127 25.1367 20.3127C24.8151 20.3127 24.5104 20.372 24.2227 20.4905C23.9349 20.609 23.681 20.7867 23.4609 21.0237C23.2409 21.2607 23.0716 21.5146 22.9531 21.7854C22.8346 22.0562 22.7669 22.3609 22.75 22.6995C22.75 23.3596 22.987 23.9267 23.4609 24.4006L27.625 28.5901V32.5002C27.625 33.6174 27.8197 34.6584 28.209 35.6233C28.5983 36.5881 29.1484 37.426 29.8594 38.137C30.5703 38.8479 31.3997 39.4234 32.3477 39.8635C33.2956 40.3036 34.3281 40.5491 35.4453 40.5999V40.7522C35.4453 40.803 35.4368 40.8538 35.4199 40.9045C35.4199 41.1754 35.4368 41.4716 35.4707 41.7932C35.5046 42.1148 35.5384 42.4364 35.5723 42.7581C35.6061 43.0797 35.6484 43.4097 35.6992 43.7483C35.75 44.0868 35.7669 44.3831 35.75 44.637C35.75 45.2294 35.64 45.7711 35.4199 46.262C35.1999 46.7528 34.8952 47.1845 34.5059 47.5569C34.1165 47.9293 33.668 48.217 33.1602 48.4202C32.6523 48.6233 32.1022 48.7333 31.5098 48.7502H3.93555C3.39388 48.7502 2.88607 48.6571 2.41211 48.4709C1.93815 48.2847 1.51497 48.0224 1.14258 47.6838C0.770182 47.3453 0.490885 46.9475 0.304688 46.4905C0.11849 46.0334 0.0169271 45.5172 0 44.9417V44.6116C0 44.51 0.0169271 44.4 0.0507812 44.2815L6.06836 5.58618C6.13607 5.19686 6.29688 4.85832 6.55078 4.57056C6.80469 4.2828 7.10091 4.04582 7.43945 3.85962C7.77799 3.67342 8.15039 3.52108 8.55664 3.40259C8.96289 3.2841 9.33529 3.23332 9.67383 3.25024H29.123C29.4616 3.25024 29.8255 3.29256 30.2148 3.3772C30.6042 3.46183 30.9681 3.60571 31.3066 3.80884C31.6452 4.01196 31.9329 4.25741 32.1699 4.54517C32.4069 4.83293 32.5423 5.17993 32.5762 5.58618L32.8047 8.5061L46.8203 22.4709C47.4297 23.0803 47.8698 23.7489 48.1406 24.4768C48.4115 25.2047 48.6061 26.0002 48.7246 26.8635L52 52.0002ZM30.4941 20.0588L29.377 6.52563C29.3262 6.50871 29.2415 6.50024 29.123 6.50024H9.67383C9.58919 6.50024 9.51302 6.50871 9.44531 6.52563C9.3776 6.54256 9.29297 6.55949 9.19141 6.57642L3.25 44.7893V44.9417C3.25 45.1278 3.31771 45.2633 3.45312 45.3479C3.58854 45.4325 3.74935 45.4833 3.93555 45.5002H31.5098C31.7467 45.5002 31.9668 45.4325 32.1699 45.2971C32.373 45.1617 32.4831 44.9586 32.5 44.6877C32.5 44.4677 32.4915 44.2476 32.4746 44.0276C32.4577 43.8075 32.4323 43.579 32.3984 43.342C31.5182 43.0881 30.6973 42.7327 29.9355 42.2756C29.1738 41.8186 28.4629 41.2769 27.8027 40.6506C27.1426 40.0243 26.584 39.3303 26.127 38.5686C25.6699 37.8069 25.2806 36.9944 24.959 36.1311C24.6882 35.3525 24.5273 34.5992 24.4766 33.8713C24.4258 33.1435 24.3919 32.3902 24.375 31.6116V29.9104L21.1504 26.7112C20.6087 26.1695 20.2025 25.5601 19.9316 24.8831C19.6608 24.206 19.5169 23.4781 19.5 22.6995C19.5 21.9208 19.6439 21.193 19.9316 20.5159C20.2194 19.8388 20.6257 19.2379 21.1504 18.7131C21.6751 18.1884 22.2676 17.7906 22.9277 17.5198C23.5879 17.2489 24.3242 17.0966 25.1367 17.0627C25.763 17.0627 26.3132 17.1389 26.7871 17.2913C27.2611 17.4436 27.7096 17.6552 28.1328 17.926C28.556 18.1969 28.9453 18.51 29.3008 18.8655C29.6562 19.2209 30.054 19.6187 30.4941 20.0588ZM14.625 42.2502V39.0002H21.125V42.2502H14.625Z" fill="#212121" fill-opacity="0.9"/>
</g>
</svg>
