<svg width="52" height="52" viewBox="0 0 52 52" fill="none" xmlns="http://www.w3.org/2000/svg">
<g id="emojione-monotone:thumbs-up">
<path id="Vector" d="M39.754 28.9898C41.704 27.9709 42.1866 21.1362 37.5221 21.1362H25.8188C25.6973 21.1147 25.5819 21.0668 25.4808 20.9959C25.3798 20.925 25.2954 20.8328 25.2338 20.7259C25.0161 20.3545 24.8121 19.3966 25.8871 17.1484C27.9362 12.86 27.9151 7.58936 25.8359 4.61804C23.7697 1.65973 20.3564 1.09179 18.1935 2.05704C16.9536 2.61117 16.3467 3.62436 16.6116 4.70011C18.0286 10.4615 16.185 13.2021 14.0514 16.3765C13.2194 17.6148 12.3581 18.8961 11.6683 20.4114C9.00008 26.2793 9.60214 34.54 10.5755 40.4371C10.9834 42.8941 12.2216 50.3748 20.1996 50.3748H35.7086C37.167 50.3748 38.3906 49.5915 39.065 48.2249C39.793 46.7494 39.7426 44.879 38.9911 43.5669C41.3262 42.4757 41.0857 38.3124 39.5631 37.1782C43.7848 36.1625 42.393 29.4042 39.754 28.9898ZM25.5255 22.3647H37.5221C40.4958 22.3647 39.7971 27.663 39.0065 27.663H26.5883C22.174 27.6638 23.3115 22.3647 25.5255 22.3647ZM21.6645 48.5231C15.2506 48.5231 13.4469 43.6489 12.8806 39.4385C11.9373 32.4299 12.0551 26.5117 14.066 21.3669C16.4296 15.3211 20.718 13.0217 18.6794 4.11104C18.5705 3.63573 18.8021 3.21079 19.132 3.02717C20.5286 2.24554 23.1896 2.98573 24.8203 5.31842C26.6313 7.90867 26.7865 12.856 24.7691 16.6211C23.0035 19.9166 24.1881 21.3775 24.2003 21.3954C21.6117 22.2371 21.0787 27.3567 23.374 28.9955C20.0298 30.2402 20.5457 36.0252 23.3115 37.0823C21.4386 37.9379 21.164 42.9884 24.9365 44.0422C24.0525 45.5477 24.5855 47.2199 25.3159 48.5231H21.6645ZM37.3336 48.5231H28.9006C26.4071 48.5231 25.3411 45.2065 26.2267 44.1226H37.0728C37.3409 44.1226 37.5936 44.0934 37.8325 44.0438C38.9375 44.7978 38.4223 48.5231 37.3336 48.5231ZM38.5036 42.2027H26.4932C22.3852 42.2027 23.3285 37.3675 25.7067 37.3675H37.0736C40.6908 37.3675 39.6492 42.2027 38.5036 42.2027ZM39.728 35.2062H26C21.1275 35.2062 21.7661 29.7641 24.7959 29.7641H37.5148C42.4783 29.7641 41.1028 35.2062 39.728 35.2062Z" fill="#212121" fill-opacity="0.9"/>
</g>
</svg>
