<svg width="54" height="54" viewBox="0 0 54 54" fill="none" xmlns="http://www.w3.org/2000/svg">
<g id="hugeicons:tow-truck">
<g id="Group">
<path id="Vector" d="M38.2546 47.25C39.448 47.25 40.5926 46.7759 41.4365 45.932C42.2804 45.0881 42.7546 43.9435 42.7546 42.75C42.7546 41.5565 42.2804 40.4119 41.4365 39.568C40.5926 38.7241 39.448 38.25 38.2546 38.25C37.0611 38.25 35.9165 38.7241 35.0726 39.568C34.2287 40.4119 33.7546 41.5565 33.7546 42.75C33.7546 43.9435 34.2287 45.0881 35.0726 45.932C35.9165 46.7759 37.0611 47.25 38.2546 47.25ZM15.7635 47.25C16.957 47.25 18.1016 46.7759 18.9455 45.932C19.7894 45.0881 20.2635 43.9435 20.2635 42.75C20.2635 41.5565 19.7894 40.4119 18.9455 39.568C18.1016 38.7241 16.957 38.25 15.7635 38.25C14.5701 38.25 13.4255 38.7241 12.5816 39.568C11.7377 40.4119 11.2635 41.5565 11.2635 42.75C11.2635 43.9435 11.7377 45.0881 12.5816 45.932C13.4255 46.7759 14.5701 47.25 15.7635 47.25Z" stroke="#212121" stroke-opacity="0.9" stroke-width="3.375" stroke-linecap="round" stroke-linejoin="round"/>
<path id="Vector_2" d="M27.0091 27L13.5136 6.75M13.5136 6.75L18.0136 29.25M13.5136 6.75H8.63557C8.20807 6.75 7.85032 7.11225 7.79857 7.59375L7.04932 14.4675C8.44432 14.4675 9.57832 15.7613 9.57832 17.3588C9.57832 18.9563 8.44657 20.25 7.04932 20.25C5.94682 20.25 4.86682 19.4445 4.51807 18.3217M42.7501 42.75C48.7868 42.75 49.5001 40.662 49.5001 34.902C49.5001 32.1458 49.5001 30.7688 48.9601 29.6055C48.3976 28.3905 47.3806 27.6323 45.2431 26.0843C43.1213 24.5453 41.6116 22.8173 40.1738 20.4368C38.1218 17.0393 37.0981 15.3405 35.5613 14.4202C34.0201 13.5 32.2066 13.5 28.5796 13.5H27.0046V29.25" stroke="#212121" stroke-opacity="0.9" stroke-width="3.375" stroke-linecap="round" stroke-linejoin="round"/>
<path id="Vector_3" d="M11.2658 42.7411C11.2658 42.7411 8.65577 42.7636 7.84577 42.6601C7.17077 42.3901 6.35177 41.7556 5.82077 41.4046C4.20077 40.3268 4.52702 40.7701 4.52702 39.7981L4.51802 31.5136V29.3536C4.51802 29.2186 4.37852 29.2478 5.41802 29.2636H48.33M20.2613 42.7546H33.7568" stroke="#212121" stroke-opacity="0.9" stroke-width="3.375" stroke-linecap="round" stroke-linejoin="round"/>
</g>
</g>
</svg>
