<svg width="32" height="32" viewBox="0 0 32 32" fill="none" xmlns="http://www.w3.org/2000/svg">
  <path id="Vector" d="M4.70786 11.3437C4.50451 10.4277 4.53574 9.47518 4.79864 8.57448C5.06154 7.67378 5.5476 6.85405 6.21176 6.19128C6.87592 5.5285 7.69668 5.04416 8.59793 4.78315C9.49917 4.52213 10.4517 4.4929 11.3673 4.69817C11.8712 3.91004 12.5654 3.26146 13.3859 2.81219C14.2065 2.36293 15.1269 2.12744 16.0623 2.12744C16.9978 2.12744 17.9182 2.36293 18.7387 2.81219C19.5592 3.26146 20.2534 3.91004 20.7574 4.69817C21.6743 4.49201 22.6285 4.52111 23.5312 4.78275C24.4339 5.0444 25.2557 5.5301 25.9203 6.19466C26.5849 6.85923 27.0706 7.68108 27.3322 8.58377C27.5939 9.48645 27.6229 10.4406 27.4168 11.3576C28.2049 11.8615 28.8535 12.5557 29.3028 13.3763C29.752 14.1968 29.9875 15.1172 29.9875 16.0526C29.9875 16.9881 29.752 17.9085 29.3028 18.729C28.8535 19.5495 28.2049 20.2437 27.4168 20.7477C27.6221 21.6632 27.5928 22.6158 27.3318 23.517C27.0708 24.4183 26.5865 25.239 25.9237 25.9032C25.2609 26.5674 24.4412 27.0534 23.5405 27.3163C22.6398 27.5792 21.6873 27.6104 20.7713 27.4071C20.268 28.1982 19.5733 28.8496 18.7514 29.3009C17.9294 29.7522 17.0069 29.9887 16.0693 29.9887C15.1316 29.9887 14.2091 29.7522 13.3872 29.3009C12.5653 28.8496 11.8706 28.1982 11.3673 27.4071C10.4517 27.6124 9.49917 27.5831 8.59793 27.3221C7.69668 27.0611 6.87592 26.5768 6.21176 25.914C5.5476 25.2512 5.06154 24.4315 4.79864 23.5308C4.53574 22.6301 4.50451 21.6776 4.70786 20.7616C3.91369 20.259 3.25953 19.5637 2.80623 18.7404C2.35294 17.9171 2.11523 16.9925 2.11523 16.0526C2.11523 15.1128 2.35294 14.1882 2.80623 13.3649C3.25953 12.5416 3.91369 11.8463 4.70786 11.3437Z" stroke="#43A047" stroke-width="2.78637" stroke-linecap="round" stroke-linejoin="round"/>
  
  <!-- Add the text element for ₦ -->
  <text x="16" y="20" font-size="23" font-weight="bold" fill="#43A047" text-anchor="middle" alignment-baseline="middle">₦</text>
</svg>
