<svg width="35" height="34" viewBox="0 0 35 34" fill="none" xmlns="http://www.w3.org/2000/svg">
<path id="Vector" d="M17.437 0.116699C23.3239 0.116699 26.6634 4.13534 27.1482 8.9899H27.2945C31.0874 8.9899 34.1552 12.1496 34.1552 16.0471C34.1552 16.2463 34.1475 16.4434 34.1322 16.6385C33.4583 15.7986 32.6754 15.0522 31.8042 14.4191C31.1564 12.4694 29.3738 11.0797 27.2966 11.0797H27.1482C26.6301 11.0797 26.1305 10.8873 25.7463 10.5397C25.3621 10.1922 25.1207 9.71435 25.0689 9.19888C24.6467 4.97544 21.8443 2.20648 17.437 2.20648C13.0192 2.20648 10.2293 4.95663 9.80511 9.19679C9.75379 9.71264 9.51257 10.191 9.12831 10.539C8.74405 10.8869 8.24417 11.0796 7.72578 11.0797H7.57949C4.95473 11.0797 2.80853 13.2907 2.80853 16.0471C2.80853 18.8056 4.95682 21.0145 7.5774 21.0145H13.1488C12.9635 21.6987 12.8397 22.3981 12.7789 23.1043H7.5774C3.78864 23.1043 0.71875 19.9445 0.71875 16.0471C0.71875 12.2792 3.58802 9.20097 7.20124 9.00035L7.72578 8.9899C8.21479 4.104 11.5501 0.116699 17.437 0.116699ZM34.1552 24.1492C34.1552 26.6433 33.1644 29.0352 31.4008 30.7988C29.6372 32.5624 27.2453 33.5532 24.7512 33.5532C22.2571 33.5532 19.8652 32.5624 18.1016 30.7988C16.338 29.0352 15.3472 26.6433 15.3472 24.1492C15.3472 21.6551 16.338 19.2631 18.1016 17.4995C19.8652 15.7359 22.2571 14.7452 24.7512 14.7452C27.2453 14.7452 29.6372 15.7359 31.4008 17.4995C33.1644 19.2631 34.1552 21.6551 34.1552 24.1492ZM28.191 20.2747L22.6614 25.8064L21.3114 24.4543C21.2143 24.3571 21.0989 24.2801 20.972 24.2275C20.8451 24.1749 20.709 24.1478 20.5716 24.1478C20.4343 24.1478 20.2982 24.1749 20.1713 24.2275C20.0443 24.2801 19.929 24.3571 19.8319 24.4543C19.7347 24.5514 19.6577 24.6668 19.6051 24.7937C19.5525 24.9206 19.5254 25.0567 19.5254 25.1941C19.5254 25.3314 19.5525 25.4675 19.6051 25.5944C19.6577 25.7214 19.7347 25.8367 19.8319 25.9338L21.9216 28.0236C22.0187 28.1209 22.134 28.1981 22.261 28.2508C22.3879 28.3035 22.524 28.3306 22.6614 28.3306C22.7989 28.3306 22.935 28.3035 23.0619 28.2508C23.1888 28.1981 23.3041 28.1209 23.4012 28.0236L29.6705 21.7543C29.8667 21.5581 29.977 21.292 29.977 21.0145C29.977 20.737 29.8667 20.4709 29.6705 20.2747C29.4743 20.0785 29.2082 19.9683 28.9308 19.9683C28.6533 19.9683 28.3872 20.0785 28.191 20.2747Z" fill="#43A047" fill-opacity="0.9"/>
</svg>
